<?xml version="1.0" encoding="UTF-8"?>
<svg version="1.1" viewBox="0 0 600 976" xmlns="http://www.w3.org/2000/svg" width="100px" height="100px">
 <path d="m190.62 353.42q3.5669 0.53326 5.7236 3.2858 2.1273 2.8804 1.7157 6.3456-0.52345 3.5325-3.2641 5.7013-2.8694 2.1396-6.3645 1.732-3.5004-0.50683-5.6946-3.2531-2.1417-2.8722-1.7453-6.3397 0.50757-3.5336 3.2372-5.7146 2.8569-2.1518 6.3535-1.7621m0.31596-2.161q-4.3627-0.5114-7.9674 2.1666-3.458 2.7474-4.0997 7.1514-0.49811 4.4203 2.1531 7.962 2.7298 3.4612 7.164 4.1156 4.3623 0.5156 7.9698-2.1594 3.4608-2.7446 4.1062-7.1483 0.5018-4.4197-2.146-7.9634-2.7264-3.4634-7.1598-4.1219"/>
 <path d="m246.27 352.99q3.5669 0.53326 5.7236 3.2858 2.1273 2.8804 1.7157 6.3456-0.52347 3.5325-3.2641 5.7013-2.8694 2.1396-6.3645 1.732-3.5004-0.50684-5.6947-3.2531-2.1417-2.8722-1.7453-6.3397 0.50757-3.5336 3.2372-5.7146 2.8569-2.1518 6.3535-1.7622m0.31598-2.1609q-4.3627-0.51141-7.9674 2.1666-3.458 2.7474-4.0997 7.1515-0.49811 4.4203 2.1531 7.962 2.7298 3.4612 7.164 4.1156 4.3623 0.51558 7.9698-2.1594 3.4608-2.7446 4.1062-7.1483 0.50181-4.4197-2.146-7.9634-2.7264-3.4634-7.1598-4.1219"/>
 <path d="m179.73 356.58l-11.505 0.09082 0.0331 3.7229 11.491-0.08743q0.30383-0.00492 0.56976-0.09485 1.3788-0.56967 1.2526-2.0548-0.10869-0.66746-0.62271-1.123-0.52764-0.4429-1.194-0.45354"/>
 <path d="m230.46 357.99l-30.342-0.08453q-0.11087-0.0046-0.28658 0.014-1.568 0.3309-1.6311 1.9209 0.19093 1.5885 1.7798 1.7895l30.403 0.0857q0.13213 7.6e-4 0.23482-0.01142 1.5817-0.30935 1.6536-1.9269-0.20059-1.6051-1.8041-1.7871"/>
 <path d="m247.65 324.62l-20.159 0.31892 0.44782 34.506-1.0957 2.2478 5.3946-1.0498q1.4679-7.4054 5.0233-9.5706 3.4083-2.1887 8.525-2.2291 5.6283 0.07986 8.161 3.0162 2.4249 2.4874 3.6085 10.432l4.8088-0.38166-0.63382-12.264-14.046-24.963-0.03529-0.06273zm-13.301 2.8071q0.76839 0 1.803 0.2557 1.0479 0.25426 2.4858 0.79048l5.4209 2.1503q1.142 0.40195 1.6456 0.40195 0.00916 0 0.01811-1.2e-4 0.23647-0.00141 0.25884-0.06061 0.02005-0.18617-0.08354-0.45654l-1.2464-2.3821 0.65034-0.35477 11.169 20.612q0.13422 0.25796-0.07974 0.47386-0.11545 0.0885-0.23893 0.0885-0.10075 0-0.20689-0.05894l-23.238-12.097q-0.10118-0.09703-0.11722-0.22973l-0.50529-7.0267q-0.00281-1.0736 0.68582-1.6504l0.02957-0.02301q0.54901-0.43266 1.5485-0.43266z"/>
 <path d="m239.52 327.89q-0.93989 0-1.9061 0.21823h0.00236q0.48052 0.16034 1.0149 0.35962l5.4209 2.1503q1.142 0.40195 1.6456 0.40195 0.00916 0 0.01811-1.2e-4 0.23647-0.00141 0.25884-0.06061 0.01082-0.10047-0.01438-0.22547h0.00246q-3.0497-2.8439-6.4426-2.8439z"/>
 <path d="m232.25 331.9q-0.07155 0.12684-0.13828 0.25715-1.155 2.5844 0.3058 4.2271 0.07993 0.08377 0.16872 0.15939l-0.33392-4.6437z"/>
 <path d="m248.64 333.94l5.6072 10.348q-2.9241-6.5208-5.6047-10.348z"/>
 <path d="m232.89 330.41l0.00884 0.12068 0.08287 0.00592q-0.02691-0.0749-0.08937-0.1266z"/>
 <path d="m243.6 327.18q-0.28225 0.2355-0.56598 0.4701 1.4881 1.7588 2.8097 3.3591 0.1149-0.01349 0.13016-0.05386 0.02005-0.18617-0.08354-0.45654l-0.84096-1.6072h0.00245q-0.70437-0.83575-1.4518-1.7116z"/>
 <path d="m232.14 330.44q-0.67964 0.22025-1.206 0.43485l-0.0106 0.00433q-5.4461 2.015 2.8813 7.6491 6.9116 4.6844 14.21 8.0033 5.0964 2.259 7.4028 2.259 0.16865 0 0.3224-0.01209h0.00256l-1.5927-0.8291h0.00254q-2.2526-0.44348-6.391-2.3447-7.0316-3.3029-13.183-7.4462-3.9966-2.728-4.8316-4.3415-0.48154-0.98375 0.17041-1.5142 0.28737-0.26508 0.77614-0.5043 0.43205-0.22526 1.5016-0.59238h0.00232l-0.0551-0.76615z"/>
 <path d="m247.51 331.85l2.0254 3.7377h0.0025q3.9139 4.9861 5.5738 7.8286 2.2724 3.8234 1.106 4.5076h0.00256l0.24686 0.45554q0.061 0.11726 0.05008 0.22583 1.9625-0.93774-1.1656-6.1599-2.106-3.6073-7.8391-10.595z"/>
 <path d="m243.47 326.05q-4.3347-0.00426-12.492 0.97377l-0.8506 3.3042 18.024 1.2855q0.93404-1.682 1.1272-2.7252 0.18542-1.0261-0.33373-1.6344-0.9084-1.2351-5.4656-1.2039"/>
 <path d="m221.43 309.06l-47.68 0.55115-0.33464 40.979 0.07185 0.02084 6.2109 0.0666q5.6865-5.5751 9.3531-5.2882 4.1594 0.1998 10.814 4.8945l21.973 0.42722 0.50395-0.48841-0.08157-40.92-0.0047-0.07832-0.74427-0.1486"/>
 <g fill="#4e3b3b">
  <path d="m245.18 352.92q0.52103 0 1.0571 0.0597l0.03861 0.0049q3.5669 0.53326 5.7236 3.2858 2.1273 2.8804 1.7157 6.3456-0.52347 3.5325-3.2641 5.7013-2.4102 1.7972-5.262 1.7972-0.54326 0-1.1025-0.06522-3.5004-0.50684-5.6947-3.2531-2.1417-2.8722-1.7453-6.3397 0.50757-3.5336 3.2372-5.7146 2.419-1.8218 5.2964-1.8218z"/>
 </g>
 <g fill="#4e3b3b">
  <path d="m189.53 353.35q0.52103 0 1.0571 0.05972l0.03858 0.00488q3.5669 0.53326 5.7236 3.2858 2.1273 2.8804 1.7157 6.3456-0.52345 3.5325-3.2641 5.7013-2.4102 1.7972-5.262 1.7972-0.54326 0-1.1025-0.06523-3.5004-0.50683-5.6946-3.2531-2.1417-2.8722-1.7453-6.3397 0.11045-0.76885 0.32607-1.4737h-0.00182q0.18448-0.2991 0.24059-0.6763h-0.00182q0.82988-2.0911 2.6741-3.5646 2.4189-1.8219 5.2964-1.8219z"/>
 </g>
</svg>
