<?xml version="1.0" encoding="UTF-8"?>
<svg viewBox="0 0 656.8 591.75" xmlns="http://www.w3.org/2000/svg">
 <g transform="matrix(.5478 0 0 .5478 165.3 314.13)">
  <g stroke-linecap="round" stroke-linejoin="round">
   <g stroke-width="30">
    <path d="m-54.218 354.62c190.45-82.025 519.49-59.397 692.96 53.74 63.168-78.253 41.484-266.82-31.113-288.5 49.969-191.39-49.969-600.57 192.33-613.77 97.11 103.71 157.45-126.34 2.829-70.711-319.58 30.77-208.16 428.58-282.84 664.68-267.76-58.454-716.54 69.768-625.08 141.42 265.87-71.654 593.97-157.45 712.76 87.681-131.99-131.99-620.37-108.42-661.85 25.456z" fill="#f00"/>
    <path d="m-34.419 111.38c-212.13-178.19-690.58-697.5 574.17-444.06-930.55-50.912-808.93 28.284-574.17 444.06z" fill="#003f7f"/>
    <g fill="#007f00">
     <path d="m-192.81-171.47c207.42-68.825 457.26-95.223 684.48-50.911-214.02-15.085-461.98 37.712-661.85 104.65-7.543-17.913-15.085-35.826-22.628-53.74z"/>
     <path d="m-124.93-41.359c10.371 19.799 20.741 39.598 31.112 59.397 140.48-90.51 334.7-130.11 534.57-118.79-148.02-76.367-335.64-48.083-565.68 59.397z"/>
    </g>
    <path d="m-181.5-315.72l82.024-36.77c118.79 143.31 181.02 292.27 220.62 446.89-75.425-145.19-159.34-276.24-302.64-410.12z" fill="#f00"/>
    <path d="m-11.791-366.63c23.57-0.94302 47.14-1.886 70.711-2.829 107.48 130.11 152.74 263.04 152.74 398.81-40.54-131.99-103.71-263.99-223.44-395.98z" fill="#ff0"/>
    <path d="m186.2-363.8c22.627 0.94299 45.254 1.886 67.882 2.829 43.369 112.19 75.425 218.73 70.711 336.58-15.085-118.79-69.768-223.45-138.59-339.41z" fill="#d4ffaa"/>
   </g>
   <g stroke="#fffdff" stroke-width="9.127">
    <path d="m8.5173 306.23c-17.018 0.24399-32.895 5.086-45.625 14.969-37.032 28.748-33.575 89.261 7.7188 135.09 41.294 45.833 104.88 59.718 141.91 30.969 37.032-28.748 33.575-89.292-7.718-135.12-27.1-30.078-63.792-46.372-96.282-45.906zm29.125 57.406c14.227-0.21899 30.29 7.499 42.156 21.688 18.082 21.621 19.622 50.157 3.4062 63.718-16.216 13.562-44.074 7.028-62.156-14.593-18.082-21.622-19.591-50.189-3.375-63.75 5.5742-4.662 12.516-6.948 19.969-7.063z"/>
    <path d="m513.39 306.23c-17.018 0.24399-32.896 5.086-45.625 14.969-37.032 28.748-33.575 89.261 7.719 135.09 41.294 45.833 104.87 59.718 141.91 30.969 37.031-28.748 33.575-89.292-7.719-135.12-27.099-30.078-63.791-46.372-96.281-45.906zm29.125 57.406c14.227-0.21899 30.29 7.499 42.156 21.688 18.082 21.621 19.622 50.157 3.406 63.718-16.215 13.562-44.073 7.028-62.156-14.593-18.082-21.622-19.591-50.189-3.375-63.75 5.574-4.662 12.517-6.948 19.969-7.063z"/>
   </g>
  </g>
 </g>
</svg>
